<?xml version="1.0" encoding="utf-8"?>
<!-- Generator: Adobe Illustrator 16.0.2, SVG Export Plug-In . SVG Version: 6.00 Build 0)  -->
<!DOCTYPE svg PUBLIC "-//W3C//DTD SVG 1.1//EN" "http://www.w3.org/Graphics/SVG/1.1/DTD/svg11.dtd">
<svg version="1.1" id="Layer_1" xmlns="http://www.w3.org/2000/svg" xmlns:xlink="http://www.w3.org/1999/xlink" x="0px" y="0px"
	 width="15.226px" height="17.303px" viewBox="0 0 15.226 17.303" enable-background="new 0 0 15.226 17.303" xml:space="preserve">
<g>
	<path fill-rule="evenodd" clip-rule="evenodd" fill="#999999" d="M11.334,0c0.086,0.273,0.217,0.543,0.248,0.823
		c0.042,0.396,0.01,0.8,0.01,1.254c0.73,0,1.432-0.001,2.132,0.001c0.945,0.002,1.497,0.555,1.502,1.501
		c0.001,0.402,0,0.803,0,1.234c-5.073,0-10.12,0-15.208,0c0-0.54-0.047-1.086,0.012-1.622c0.068-0.622,0.666-1.101,1.302-1.11
		C2.078,2.07,2.826,2.079,3.635,2.079c0-0.448-0.029-0.877,0.012-1.299C3.673,0.514,3.807,0.26,3.893,0c0.174,0,0.347,0,0.52,0
		C4.498,0.273,4.63,0.542,4.66,0.821C4.702,1.228,4.67,1.642,4.67,2.05c1.992,0,3.926,0,5.887,0c0-0.443-0.031-0.861,0.012-1.272
		c0.027-0.265,0.16-0.519,0.246-0.778C10.988,0,11.161,0,11.334,0z M3.636,2.593c-0.499,0.394-0.622,0.791-0.437,1.25
		c0.172,0.423,0.637,0.706,1.066,0.647c0.469-0.064,0.846-0.437,0.916-0.907C5.239,3.195,5.039,2.825,4.67,2.663
		c0,0.266,0.005,0.524-0.002,0.783C4.66,3.77,4.49,3.966,4.166,3.972C3.818,3.978,3.642,3.777,3.637,3.431
		C3.633,3.174,3.636,2.917,3.636,2.593z M10.559,2.593c-0.5,0.394-0.623,0.791-0.438,1.25c0.172,0.424,0.637,0.707,1.066,0.648
		c0.469-0.064,0.845-0.437,0.915-0.907c0.059-0.389-0.142-0.759-0.513-0.921c0,0.28,0.013,0.554-0.003,0.826
		c-0.018,0.303-0.196,0.479-0.499,0.484c-0.324,0.006-0.512-0.173-0.527-0.499C10.548,3.203,10.559,2.932,10.559,2.593z"/>
	<path fill-rule="evenodd" clip-rule="evenodd" fill="#999999" d="M0.001,5.549c5.1,0,10.13,0,15.225,0c0,0.161,0,0.313,0,0.464
		c0,3.244,0.001,6.488,0,9.733c0,1.011-0.538,1.556-1.538,1.556c-4.051,0-8.104,0-12.155,0c-0.981-0.001-1.53-0.545-1.53-1.52
		C0,12.511,0.001,9.237,0.001,5.964C0.001,5.837,0.001,5.711,0.001,5.549z M1.061,6.595c0,0.918,0,1.817,0,2.723
		c0.924,0,1.822,0,2.716,0c0-0.927,0-1.825,0-2.723C2.855,6.595,1.968,6.595,1.061,6.595z M7.237,9.327c0-0.935,0-1.833,0-2.717
		c-0.931,0-1.829,0-2.716,0c0,0.924,0,1.812,0,2.717C5.434,9.327,6.32,9.327,7.237,9.327z M10.707,9.326c0-0.939,0-1.827,0-2.725
		c-0.922,0-1.82,0-2.718,0c0,0.926,0,1.824,0,2.725C8.908,9.326,9.797,9.326,10.707,9.326z M11.449,6.594c0,0.93,0,1.828,0,2.718
		c0.928,0,1.826,0,2.719,0c0-0.921,0-1.81,0-2.718C13.259,6.594,12.371,6.594,11.449,6.594z M1.066,10.055c0,0.932,0,1.83,0,2.719
		c0.93,0,1.828,0,2.719,0c0-0.924,0-1.812,0-2.719C2.875,10.055,1.987,10.055,1.066,10.055z M7.241,12.798c0-0.938,0-1.837,0-2.731
		c-0.927,0-1.825,0-2.708,0c0,0.932,0,1.83,0,2.731C5.447,12.798,6.324,12.798,7.241,12.798z M7.982,10.055c0,0.92,0,1.818,0,2.723
		c0.924,0,1.821,0,2.715,0c0-0.926,0-1.824,0-2.723C9.777,10.055,8.89,10.055,7.982,10.055z M11.451,10.054c0,0.935,0,1.833,0,2.718
		c0.93,0,1.828,0,2.716,0c0-0.923,0-1.812,0-2.718C13.256,10.054,12.367,10.054,11.451,10.054z M1.057,16.243
		c0.92,0,1.817,0,2.723,0c0-0.923,0-1.821,0-2.716c-0.926,0-1.824,0-2.723,0C1.057,14.448,1.057,15.336,1.057,16.243z M7.232,16.258
		c0-0.912,0-1.82,0-2.732c-0.912,0-1.811,0-2.702,0c0,0.928,0,1.825,0,2.732C5.441,16.258,6.318,16.258,7.232,16.258z
		 M10.722,13.521c-0.935,0-1.833,0-2.733,0c0,0.926,0,1.823,0,2.712c0.929,0,1.828,0,2.733,0
		C10.722,15.321,10.722,14.443,10.722,13.521z M11.438,16.236c0.934,0,1.831,0,2.718,0c0-0.93,0-1.828,0-2.717
		c-0.923,0-1.811,0-2.718,0C11.438,14.43,11.438,15.318,11.438,16.236z"/>
</g>
</svg>
